<svg width="234" height="232" viewBox="0 0 234 232" fill="none" xmlns="http://www.w3.org/2000/svg">
<g clip-path="url(#clip0)">
<path fill-rule="evenodd" clip-rule="evenodd" d="M116.162 29.3269L203.746 80.2182V182.683L116.562 231.97L28.6363 181.926V80.2188L116.162 29.3269ZM116.163 36.0161L34.4212 83.5449V178.564L116.572 225.321L197.961 179.31V83.5455L116.163 36.0161Z" fill="white"/>
<path fill-rule="evenodd" clip-rule="evenodd" d="M116.161 75.1843L168.052 105.315V166.029L116.387 195.252L64.3289 165.56V105.316L116.161 75.1843ZM116.163 81.8728L70.1138 108.642V162.201L116.399 188.601L162.268 162.657V108.643L116.163 81.8728Z" fill="white"/>
<path fill-rule="evenodd" clip-rule="evenodd" d="M119.055 78.5288V136.915L68.6824 166.376L65.7609 161.385L113.27 133.598V78.5288H119.055Z" fill="white"/>
<path fill-rule="evenodd" clip-rule="evenodd" d="M117.641 132.713L166.639 161.858L163.681 166.827L114.683 137.683L117.641 132.713Z" fill="white"/>
<path fill-rule="evenodd" clip-rule="evenodd" d="M119.054 19.7185V32.6716H113.269V19.7185H119.054Z" fill="white"/>
<path fill-rule="evenodd" clip-rule="evenodd" d="M203.23 179.155L214.858 184.88L212.302 190.067L200.674 184.343L203.23 179.155Z" fill="white"/>
<path fill-rule="evenodd" clip-rule="evenodd" d="M32.8935 183.43L21.4394 189.56L18.7091 184.462L30.1632 178.332L32.8935 183.43Z" fill="white"/>
<path fill-rule="evenodd" clip-rule="evenodd" d="M33.192 79.5171L68.885 104.614L65.5567 109.344L29.8638 84.2468L33.192 79.5171Z" fill="white"/>
<path fill-rule="evenodd" clip-rule="evenodd" d="M202.517 84.2468L166.824 109.344L163.496 104.614L199.189 79.5171L202.517 84.2468Z" fill="white"/>
<path fill-rule="evenodd" clip-rule="evenodd" d="M119.286 191.913L119.459 228.633L113.674 228.66L113.501 191.94L119.286 191.913Z" fill="white"/>
<path fill-rule="evenodd" clip-rule="evenodd" d="M119.054 0V12.9531H113.269V0H119.054Z" fill="white"/>
<path fill-rule="evenodd" clip-rule="evenodd" d="M119.054 51.4651V64.4182H113.269V51.4651H119.054Z" fill="white"/>
<path fill-rule="evenodd" clip-rule="evenodd" d="M222.315 188.694L234 194.419L231.455 199.612L219.769 193.887L222.315 188.694Z" fill="white"/>
<path fill-rule="evenodd" clip-rule="evenodd" d="M177.024 166.665L188.652 172.39L186.096 177.577L174.468 171.852L177.024 166.665Z" fill="white"/>
<path fill-rule="evenodd" clip-rule="evenodd" d="M14.1556 193.085L2.75935 199.215L0.0182648 194.122L11.4146 187.993L14.1556 193.085Z" fill="white"/>
<path fill-rule="evenodd" clip-rule="evenodd" d="M56.4283 171.466L44.9742 177.538L42.2639 172.429L53.7181 166.357L56.4283 171.466Z" fill="white"/>
</g>
<defs>
<clipPath id="clip0">
<rect width="234" height="232" fill="white"/>
</clipPath>
</defs>
</svg>
