<svg width="43" height="16" viewBox="0 0 43 16" fill="none" xmlns="http://www.w3.org/2000/svg">
<path d="M3.56801 8.07302C3.56801 7.77972 3.72102 7.53302 4.02802 7.33302C4.33502 7.11972 4.71501 7.01302 5.16801 7.01302H10.488H11.028C11.388 7.01302 11.568 6.83301 11.568 6.47301V5.41302C11.568 5.05302 11.388 4.87302 11.028 4.87302H10.488H5.16801C3.84801 4.87302 2.71502 5.18632 1.76802 5.81301C0.821021 6.43971 0.348022 7.19302 0.348022 8.07302V12.333C0.348022 13.213 0.821021 13.973 1.76802 14.613C2.71502 15.2397 3.84801 15.553 5.16801 15.553H10.488H11.028C11.388 15.553 11.568 15.373 11.568 15.013V13.933C11.568 13.5863 11.388 13.413 11.028 13.413H10.488H5.16801C4.71501 13.413 4.33502 13.3063 4.02802 13.093C3.72102 12.8797 3.56801 12.6263 3.56801 12.333V8.07302ZM27.172 8.07302C27.172 7.24632 26.759 6.53302 25.932 5.93302C25.119 5.34632 24.105 4.99972 22.892 4.89302V4.87302H19.952H17.032C16.672 4.87302 16.492 5.05302 16.492 5.41302V6.47301C16.492 6.83301 16.672 7.01302 17.032 7.01302H22.372C22.812 7.01302 23.185 7.11972 23.492 7.33302C23.812 7.53302 23.972 7.77972 23.972 8.07302V8.09302C23.959 8.38632 23.792 8.63302 23.472 8.83302C23.165 9.03302 22.799 9.13301 22.372 9.13301H21.832H19.172C17.852 9.13301 16.719 9.44632 15.772 10.073C14.825 10.6997 14.352 11.453 14.352 12.333C14.352 13.213 14.825 13.973 15.772 14.613C16.719 15.2397 17.852 15.553 19.172 15.553H22.372C23.679 15.553 24.805 15.2397 25.752 14.613C26.699 13.973 27.172 13.213 27.172 12.333V8.09302V8.07302ZM22.372 11.273H23.972V12.333C23.972 12.6263 23.812 12.8797 23.492 13.093C23.185 13.3063 22.812 13.413 22.372 13.413H19.172C18.719 13.413 18.339 13.3063 18.032 13.093C17.725 12.8797 17.572 12.6263 17.572 12.333C17.572 12.0397 17.725 11.793 18.032 11.593C18.339 11.3797 18.719 11.273 19.172 11.273H21.832H22.372ZM33.256 12.333V8.07302C33.256 7.77972 33.409 7.53302 33.716 7.33302C34.022 7.11972 34.402 7.01302 34.856 7.01302H39.656V8.07302V12.333C39.656 12.6263 39.496 12.8797 39.176 13.093C38.869 13.3063 38.496 13.413 38.056 13.413H34.856C34.402 13.413 34.022 13.3063 33.716 13.093C33.409 12.8797 33.256 12.6263 33.256 12.333ZM42.856 3.81301V1.13301C42.856 0.773015 42.676 0.593018 42.316 0.593018H40.176C39.829 0.593018 39.656 0.773015 39.656 1.13301V3.83302C39.642 4.12632 39.476 4.37302 39.156 4.57302C38.849 4.77302 38.482 4.87302 38.056 4.87302H34.856C33.536 4.87302 32.402 5.18632 31.456 5.81301C30.509 6.43971 30.036 7.19302 30.036 8.07302V12.333C30.036 13.213 30.509 13.973 31.456 14.613C32.402 15.2397 33.536 15.553 34.856 15.553H35.856H36.076H36.476H38.056H38.576V15.513C39.789 15.433 40.802 15.093 41.616 14.493C42.442 13.8663 42.856 13.1463 42.856 12.333V8.07302V3.81301Z" fill="white"/>
</svg>
