<svg width="27" height="12" viewBox="0 0 27 12" fill="none" xmlns="http://www.w3.org/2000/svg">
<path d="M2.46603 6.02995C2.46603 5.82465 2.57302 5.65194 2.78802 5.51194C3.00202 5.36264 3.26803 5.28794 3.58603 5.28794H7.31003H7.68803C7.94003 5.28794 8.06602 5.16194 8.06602 4.90994V4.16794C8.06602 3.91594 7.94003 3.78995 7.68803 3.78995H7.31003H3.58603C2.66203 3.78995 1.86802 4.00924 1.20602 4.44794C0.543024 4.88664 0.212036 5.41395 0.212036 6.02995V9.01195C0.212036 9.62795 0.543024 10.1599 1.20602 10.6079C1.86802 11.0466 2.66203 11.2659 3.58603 11.2659H7.31003H7.68803C7.94003 11.2659 8.06602 11.1399 8.06602 10.8879V10.1319C8.06602 9.88925 7.94003 9.76795 7.68803 9.76795H7.31003H3.58603C3.26803 9.76795 3.00202 9.69324 2.78802 9.54394C2.57302 9.39464 2.46603 9.21725 2.46603 9.01195V6.02995ZM12.269 3.04795C12.269 2.84264 12.376 2.66525 12.591 2.51595C12.805 2.36665 13.071 2.29194 13.389 2.29194V0.793945C12.455 0.793945 11.662 1.01794 11.009 1.46594C10.346 1.91394 10.015 2.44125 10.015 3.04795V10.8879C10.015 11.1399 10.141 11.2659 10.393 11.2659H11.891C12.143 11.2659 12.269 11.1399 12.269 10.8879V10.1319V10.1179V6.02995C12.269 5.82465 12.376 5.65194 12.591 5.51194C12.815 5.36264 13.081 5.28794 13.389 5.28794H14.131H14.509C14.761 5.28794 14.887 5.16194 14.887 4.90994V4.16794C14.887 3.91594 14.761 3.78995 14.509 3.78995H14.131H12.269V3.04795ZM16.749 0.793945H13.389L13.417 2.29194H16.749C16.991 2.29194 17.113 2.17064 17.113 1.92794V1.17195C17.113 0.919946 16.991 0.793945 16.749 0.793945ZM19.433 9.01195V6.02995C19.433 5.82465 19.54 5.65194 19.755 5.51194C19.969 5.36264 20.235 5.28794 20.553 5.28794H23.913V6.02995V9.01195C23.913 9.21725 23.801 9.39464 23.577 9.54394C23.362 9.69324 23.101 9.76795 22.793 9.76795H20.553C20.235 9.76795 19.969 9.69324 19.755 9.54394C19.54 9.39464 19.433 9.21725 19.433 9.01195ZM26.153 3.04795V1.17195C26.153 0.919946 26.027 0.793945 25.775 0.793945H24.277C24.034 0.793945 23.913 0.919946 23.913 1.17195V3.06194C23.903 3.26725 23.787 3.43994 23.563 3.57994C23.348 3.71994 23.091 3.78995 22.793 3.78995H20.553C19.629 3.78995 18.835 4.00924 18.173 4.44794C17.51 4.88664 17.179 5.41395 17.179 6.02995V9.01195C17.179 9.62795 17.51 10.1599 18.173 10.6079C18.835 11.0466 19.629 11.2659 20.553 11.2659H21.253H21.407H21.687H22.793H23.157V11.2379C24.006 11.1819 24.715 10.9439 25.285 10.5239C25.863 10.0852 26.153 9.58125 26.153 9.01195V6.02995V3.04795Z" fill="white"/>
</svg>
