<svg width="454" height="164" viewBox="0 0 454 164" fill="none" xmlns="http://www.w3.org/2000/svg">
<g clip-path="url(#clip0)">
<path d="M3.5434 5.14088C40.1099 3.29009 76.7278 2.21047 113.294 1.3879C149.861 0.565328 186.479 0.256864 223.097 -0.000189722C259.714 -0.257243 296.332 0.256864 332.899 1.3879C369.465 2.51893 406.237 3.54715 442.393 9.66501C433.303 8.68821 424.212 7.66 415.071 7.35153C405.929 7.04307 396.839 6.52896 387.697 6.27191C378.556 6.01486 369.414 5.80921 360.272 5.65498C351.131 5.50075 341.989 5.14088 332.847 5.14088C296.281 5.14088 259.714 5.14088 223.097 5.14088H113.346C77.0359 5.14088 40.1613 5.39793 3.5434 5.14088Z" fill="white"/>
<path d="M0 33.0571C36.926 28.3273 73.9548 24.7285 111.035 21.7467C129.575 20.2044 148.166 19.1762 166.758 18.3022C185.349 17.4282 203.992 17.0169 222.789 18.0452C259.92 21.3868 296.846 25.1398 333.824 28.7386C352.312 30.5894 370.852 32.3887 389.341 33.8796C398.585 34.7536 407.83 35.5762 417.125 36.2959L431.043 37.1699C435.651 37.6839 440.302 37.6839 444.91 37.1699C440.324 38.0354 435.653 38.3632 430.992 38.1467C426.37 38.1467 421.696 38.1467 417.023 37.8383C407.727 37.5298 398.431 37.0671 389.135 36.6044C370.595 35.4734 352.055 34.0853 333.464 32.6972C296.435 29.921 259.355 26.168 222.378 23.2376C185.555 21.1812 148.269 23.906 111.24 25.7053C74.2115 27.5047 37.1314 30.4351 0 33.0571Z" fill="white"/>
<path d="M0 55.3692C36.8747 49.8169 73.852 45.0871 110.983 41.4883C129.524 39.4833 148.115 37.9924 166.706 36.7071C185.298 35.4219 203.94 34.3937 222.737 34.5993C232.187 34.5993 241.586 35.5761 250.83 36.6557L278.614 39.8946C297.103 42.1567 315.592 44.3673 334.08 46.9893L389.444 54.2896C398.688 55.5234 407.932 56.7573 417.177 57.7855C421.799 58.2996 426.421 58.8137 431.043 59.225C435.665 59.7899 440.339 59.7899 444.961 59.225C440.345 59.9794 435.654 60.1693 430.992 59.7905C426.37 59.7905 421.696 59.2764 417.023 58.968C407.727 58.2482 398.431 57.477 389.187 56.6031L333.824 50.8965L278.049 44.5216L250.316 41.5397C241.021 40.5115 231.879 39.8432 222.635 39.7404C204.146 39.3805 185.555 40.2545 167.014 41.3855C148.474 42.5165 129.883 44.0074 111.343 45.3955C92.8029 46.7836 74.2115 48.5316 55.6715 50.2281L0 55.3692Z" fill="white"/>
<path d="M9.03894 73.2597C45.8622 67.2446 82.8396 62.412 119.92 58.3506C138.46 56.2428 157.051 54.7004 175.694 53.2095C194.367 51.7514 213.107 51.3223 231.828 51.9243C250.624 53.3123 269.01 55.7801 287.551 57.9393C306.091 60.0986 324.579 62.412 343.017 64.9312L398.483 72.1286C407.727 73.3111 416.92 74.4935 426.216 75.5217L440.082 76.9098C444.706 77.449 449.376 77.449 454 76.9098C449.381 77.6386 444.693 77.8283 440.031 77.4754C435.409 77.4754 430.735 76.9612 426.062 76.6528C416.766 76.0359 407.47 75.2133 398.174 74.3907L342.554 69.0954C305.526 65.2396 268.446 60.0986 231.52 57.271C194.645 55.5744 157.359 59.3788 120.279 62.412C83.1991 65.4453 46.2217 69.3525 9.03894 73.2597Z" fill="white"/>
<path d="M13.0964 96.8571C47.7113 88.323 82.6173 81.194 117.814 75.4703C135.43 72.5913 153.097 70.3292 170.918 68.8383C179.854 68.2214 188.842 67.6559 197.829 67.9129C206.817 68.17 215.753 68.8383 224.689 69.7123C260.229 73.6195 295.254 79.9944 330.177 87.2433C365.155 94.0795 399.736 102.815 433.765 113.411C416.715 108.27 399.15 105.134 381.792 101.484C364.433 97.8339 346.869 94.4408 329.407 91.202C294.433 84.7756 259.407 78.5549 224.124 74.7506C188.996 69.6095 153.559 74.7506 118.379 79.2233C83.1993 83.696 48.1222 90.2766 13.0964 96.8571Z" fill="white"/>
<path d="M9.03894 128.167C42.8298 115.407 77.3109 104.559 112.319 95.6754C129.851 91.1884 147.635 87.7549 165.577 85.3932C174.634 84.1991 183.764 83.6494 192.899 83.7481C201.987 84.0357 211.055 84.7907 220.067 86.0102C238.042 88.3236 255.76 91.9224 273.479 95.6754C291.197 99.4283 308.71 103.387 326.171 107.963C360.992 117.268 395.915 126.625 429.708 139.323C412.555 133.771 395.093 129.401 377.631 124.877C360.17 120.352 342.708 115.983 325.196 111.921C290.118 103.644 254.939 95.7268 219.399 90.8428C183.911 84.2622 148.218 91.7681 113.192 99.3255C95.6276 103.284 78.2175 107.911 60.8586 112.744C43.4998 117.576 26.2437 122.769 9.03894 128.167Z" fill="white"/>
<path fill-rule="evenodd" clip-rule="evenodd" d="M162.468 118.655C156.583 122.658 156.126 128.948 156.126 136.804C156.126 142.961 160.261 147.753 167.932 151.461C175.585 155.16 186.119 157.421 197.342 158.669C202.631 159.257 209.867 158.635 217.874 157.113C225.839 155.599 234.396 153.228 242.26 150.434C250.141 147.634 257.227 144.444 262.293 141.322C264.834 139.757 266.765 138.27 268.03 136.932C269.351 135.535 269.626 134.641 269.626 134.233C269.626 131.787 269.166 130.262 268.077 129.011C266.891 127.65 264.666 126.274 260.346 124.881C251.684 122.089 236.231 119.7 208.933 115.959C195.435 114.109 185.357 113.698 177.84 114.315C170.309 114.934 165.532 116.571 162.468 118.655ZM177.42 109.191C185.449 108.532 195.933 108.988 209.63 110.865C236.719 114.578 252.722 117.022 261.92 119.988C266.53 121.474 269.836 123.209 271.947 125.632C274.156 128.167 274.762 131.102 274.762 134.233C274.762 136.615 273.397 138.735 271.76 140.466C270.065 142.258 267.719 144.016 264.985 145.7C259.502 149.079 252.05 152.411 243.978 155.279C235.889 158.153 227.078 160.596 218.832 162.164C210.628 163.723 202.81 164.45 196.775 163.779C185.349 162.508 174.133 160.167 165.699 156.091C157.282 152.022 150.991 145.864 150.991 136.804C150.991 129.236 151.201 120.103 159.581 114.403C163.65 111.635 169.403 109.85 177.42 109.191Z" fill="white"/>
</g>
<defs>
<clipPath id="clip0">
<rect width="454" height="164" fill="white"/>
</clipPath>
</defs>
</svg>
