<svg width="62" height="55" viewBox="0 0 62 55" fill="none" xmlns="http://www.w3.org/2000/svg">
<path fill-rule="evenodd" clip-rule="evenodd" d="M15.1105 7.2807L7.11058 16.1493L1.64338 26.9416C7.35018 31.1966 13.6561 34.5903 20.3578 37.0124C25.5904 38.767 32.0782 38.9801 37.2931 38.7442C39.8947 38.6264 42.1662 38.3977 43.7867 38.1985C44.5968 38.0989 45.2438 38.0067 45.6874 37.9396C45.9092 37.906 46.0802 37.8787 46.1953 37.8599C46.1959 37.8597 46.1966 37.8596 46.1973 37.8595L54.1536 28.802L48.2058 14.9466C41.9021 15.7642 35.5018 15.461 29.3025 14.0501L29.2898 14.0472C24.5628 12.8396 20.9319 11.0747 18.4792 9.6086C17.2527 8.8755 16.3204 8.2168 15.6923 7.7393C15.4547 7.5586 15.2605 7.4038 15.1105 7.2807ZM46.4535 38.3169C46.5391 38.8028 46.539 38.8028 46.5388 38.8029L46.5356 38.8034L46.5265 38.805L46.4914 38.811C46.4606 38.8162 46.4152 38.8238 46.3558 38.8336C46.2369 38.853 46.062 38.8809 45.8361 38.9151C45.3842 38.9835 44.7281 39.077 43.908 39.1778C42.2681 39.3794 39.9706 39.6108 37.338 39.7299C32.0861 39.9675 25.4471 39.7615 20.0363 37.9457L20.0255 37.9421C13.0992 35.4394 6.58988 31.9129 0.715976 27.481L1.01478 27.0876L0.572876 26.8653L6.28608 15.5873L15.032 5.8916L15.4004 6.2296L15.4024 6.2314L15.4114 6.2395C15.4198 6.2471 15.4331 6.259 15.4512 6.2749C15.4873 6.3066 15.5428 6.3547 15.6174 6.4173C15.7665 6.5425 15.9922 6.7261 16.2929 6.9548C16.8945 7.4122 17.7965 8.0499 18.9885 8.7624C21.3716 10.1868 24.9123 11.9093 29.5294 13.0896C35.733 14.5007 42.1416 14.7817 48.4457 13.9191L48.8197 13.8679L55.309 28.9848L46.711 38.7727L46.5388 38.8029L46.4535 38.3169Z" fill="white"/>
<path fill-rule="evenodd" clip-rule="evenodd" d="M9.02869 17.7265L14.621 6.37451L15.5098 6.80931L9.85379 18.2907L1.37839 27.4218L0.651489 26.7517L9.02869 17.7265Z" fill="white"/>
<path fill-rule="evenodd" clip-rule="evenodd" d="M48.1393 14.084L48.8869 14.7311L40.7159 24.1059L46.9067 38.1177L46.0005 38.5154L39.5568 23.9311L48.1393 14.084Z" fill="white"/>
<path fill-rule="evenodd" clip-rule="evenodd" d="M23.6582 24.5048C18.4073 23.638 13.4358 21.5485 9.14783 18.4062L9.73443 17.6113C13.8957 20.6607 18.7202 22.6888 23.8158 23.5306C29.2025 24.3249 34.6771 24.3247 40.0637 23.53L40.2087 24.5061C34.7246 25.3152 29.1508 25.3152 23.6666 24.5061L23.6582 24.5049V24.5048Z" fill="white"/>
<path fill-rule="evenodd" clip-rule="evenodd" d="M27.2001 25.8049L60.4076 34.1777L60.1647 35.1343L27.546 26.9099L10.21 46.6737L9.46448 46.0243L27.2001 25.8049Z" fill="white"/>
<path d="M12.4016 45.9642L10.0351 46.1221L9.87673 43.7637L8.93604 44.8294L9.09453 47.1976L11.461 47.0397L12.4016 45.9642Z" fill="white"/>
<path d="M57.9691 35.7906L60.0088 34.5769L58.7909 32.554L60.1772 32.8994L61.3852 34.9321L59.3454 36.1458L57.9691 35.7906Z" fill="white"/>
<path fill-rule="evenodd" clip-rule="evenodd" d="M26.8779 26.5845V2.09326H27.8681V26.5845H26.8779Z" fill="white"/>
<path d="M25.6997 4.05637L27.3731 2.38867L29.0564 4.05637V2.64527L27.3731 0.967773L25.6997 2.64527V4.05637Z" fill="white"/>
<path fill-rule="evenodd" clip-rule="evenodd" d="M16.7766 32.2069C15.397 32.0914 14.0132 32.3731 12.7896 33.0186C11.5661 33.664 10.5543 34.6461 9.87447 35.848C9.19467 37.0499 8.87557 38.421 8.95507 39.7984L7.96657 39.855C7.87617 38.2889 8.23897 36.73 9.01187 35.3635C9.78477 33.997 10.9352 32.8804 12.3264 32.1465C13.7176 31.4126 15.2909 31.0923 16.8595 31.2236C18.428 31.3549 19.9257 31.9324 21.1745 32.8873C22.4232 33.8423 23.3706 35.1345 23.9038 36.6104C24.437 38.0863 24.5338 39.6837 24.1825 41.2128C23.8311 42.7418 23.0466 44.1382 21.9221 45.2358C20.7976 46.3335 19.3804 47.0862 17.8391 47.4045L17.6382 46.4383C18.9938 46.1583 20.2402 45.4963 21.2292 44.5309C22.2183 43.5655 22.9083 42.3374 23.2173 40.9926C23.5262 39.6477 23.4412 38.2427 22.9722 36.9447C22.5032 35.6466 21.67 34.5101 20.5717 33.6702C19.4734 32.8303 18.1561 32.3224 16.7766 32.2069Z" fill="white"/>
<path d="M9.90638 37.6753L8.44098 39.5403L6.56958 38.0799L6.73788 39.491L8.60928 40.9514L10.0748 39.0864L9.90638 37.6753Z" fill="white"/>
<path d="M15.8773 53.986V50.8876L14.3425 53.4531H13.9564L12.4216 50.9271V53.986H11.58V49.3186H12.2731L14.1346 52.4072L15.9763 49.3186H16.6991V53.986H15.8773Z" fill="white"/>
<path d="M21.1845 52.4668H18.4219C18.4636 52.7192 18.6021 52.9456 18.8081 53.0983C19.0743 53.2704 19.3908 53.3484 19.7068 53.3197C20.0228 53.2911 20.32 53.1575 20.5508 52.9404L21.0062 53.4535C20.8388 53.6444 20.6284 53.7932 20.3923 53.8877C20.1264 53.9861 19.8441 54.033 19.5606 54.0258C19.2171 54.0298 18.8777 53.952 18.5704 53.7989C18.2799 53.6547 18.0388 53.4281 17.8773 53.1476C17.7006 52.8496 17.6146 52.5067 17.6298 52.1609C17.6175 51.8165 17.6996 51.4754 17.8674 51.1741C18.0201 50.8997 18.251 50.6765 18.5308 50.5327C18.818 50.3727 19.1425 50.2911 19.4715 50.2959C19.799 50.2929 20.1222 50.3708 20.4121 50.5229C20.6803 50.6799 20.9023 50.9045 21.0557 51.1741C21.2165 51.4777 21.295 51.8178 21.2835 52.1609C21.2439 52.2793 21.234 52.3681 21.1845 52.4668ZM18.7586 51.2925C18.5732 51.4512 18.4533 51.6727 18.4219 51.9142H20.4022C20.3803 51.672 20.2627 51.4484 20.0755 51.2925C19.8827 51.1396 19.6436 51.0564 19.3972 51.0564C19.1508 51.0564 18.9117 51.1396 18.719 51.2925H18.7586Z" fill="white"/>
</svg>
