<svg width="39" height="16" viewBox="0 0 39 16" fill="none" xmlns="http://www.w3.org/2000/svg">
<path d="M3.33804 3.81326C3.33804 3.51996 3.49105 3.26656 3.79805 3.05326C4.10405 2.83996 4.48405 2.73326 4.93805 2.73326V0.593262C3.60405 0.593262 2.47104 0.913261 1.53804 1.55326C0.59104 2.19326 0.118042 2.94656 0.118042 3.81326V15.0133C0.118042 15.3733 0.298051 15.5533 0.658051 15.5533H2.79805C3.15805 15.5533 3.33804 15.3733 3.33804 15.0133V13.9333V13.9133V8.07326C3.33804 7.77996 3.49105 7.53326 3.79805 7.33326C4.11805 7.11996 4.49805 7.01326 4.93805 7.01326H5.99805H6.53804C6.89804 7.01326 7.07805 6.83326 7.07805 6.47326V5.41326C7.07805 5.05326 6.89804 4.87326 6.53804 4.87326H5.99805H3.33804V3.81326ZM9.73805 0.593262H4.93805L4.97804 2.73326H9.73805C10.0841 2.73326 10.258 2.55996 10.258 2.21326V1.13326C10.258 0.773259 10.0841 0.593262 9.73805 0.593262ZM13.5721 12.3333C13.5721 12.04 13.7251 11.7933 14.0321 11.5933C14.3391 11.38 14.719 11.2733 15.172 11.2733H15.7121H18.892V11.2533C20.105 11.1466 21.1191 10.8 21.9321 10.2133C22.7591 9.61326 23.172 8.89996 23.172 8.07326C23.172 7.19326 22.6991 6.43996 21.7521 5.81326C20.8051 5.18656 19.6791 4.87326 18.3721 4.87326H15.172C13.852 4.87326 12.719 5.18656 11.772 5.81326C10.825 6.43996 10.3521 7.19326 10.3521 8.07326V12.3333C10.3521 13.2133 10.825 13.9733 11.772 14.6133C12.719 15.24 13.852 15.5533 15.172 15.5533H20.4921H21.0321C21.3921 15.5533 21.572 15.3733 21.572 15.0133V13.9333C21.572 13.5866 21.3921 13.4133 21.0321 13.4133H20.4921H15.172C14.719 13.4133 14.3391 13.3066 14.0321 13.0933C13.7251 12.88 13.5721 12.6266 13.5721 12.3333ZM13.5721 9.13326V8.07326C13.5721 7.77996 13.7251 7.53326 14.0321 7.33326C14.3391 7.11996 14.719 7.01326 15.172 7.01326H18.3721C18.8121 7.01326 19.1851 7.11996 19.4921 7.33326C19.812 7.53326 19.972 7.77996 19.972 8.07326C19.972 8.36656 19.812 8.61996 19.4921 8.83326C19.1851 9.03326 18.8121 9.13326 18.3721 9.13326H17.3121H13.5721ZM38.856 8.07326C38.856 7.24656 38.442 6.53326 37.616 5.93326C36.802 5.34656 35.789 4.99996 34.576 4.89326V4.87326H31.636H28.716C28.356 4.87326 28.176 5.05326 28.176 5.41326V6.47326C28.176 6.83326 28.356 7.01326 28.716 7.01326H34.056C34.496 7.01326 34.869 7.11996 35.176 7.33326C35.496 7.53326 35.6561 7.77996 35.6561 8.07326V8.09326C35.6421 8.38656 35.4761 8.63326 35.1561 8.83326C34.8491 9.03326 34.482 9.13326 34.056 9.13326H33.516H30.856C29.536 9.13326 28.402 9.44656 27.456 10.0733C26.509 10.7 26.0361 11.4533 26.0361 12.3333C26.0361 13.2133 26.509 13.9733 27.456 14.6133C28.402 15.24 29.536 15.5533 30.856 15.5533H34.056C35.362 15.5533 36.4891 15.24 37.4361 14.6133C38.382 13.9733 38.856 13.2133 38.856 12.3333V8.09326V8.07326ZM34.056 11.2733H35.6561V12.3333C35.6561 12.6266 35.496 12.88 35.176 13.0933C34.869 13.3066 34.496 13.4133 34.056 13.4133H30.856C30.402 13.4133 30.022 13.3066 29.716 13.0933C29.409 12.88 29.2561 12.6266 29.2561 12.3333C29.2561 12.04 29.409 11.7933 29.716 11.5933C30.022 11.38 30.402 11.2733 30.856 11.2733H33.516H34.056Z" fill="white"/>
</svg>
