<svg id="vwm-anim" xmlns="http://www.w3.org/2000/svg" viewBox="-40 -20 252 140">
	<g id="logo">
		<g id="move-elements">
			<path d="M121.14,95h28.19A22.65,22.65,0,0,0,172,72.38V22.62A22.65,22.65,0,0,0,149.33,0H121V19h33V76H121Z" fill="#afcadd" fill-rule="evenodd"/>
			<path d="M50.86,76H19V19H50.86V0H0V72.38A22.65,22.65,0,0,0,22.67,95H50.86Z" fill="#afcadd" fill-rule="evenodd"/>
			<path d="M104.14,95h28.19A22.65,22.65,0,0,0,155,72.38V22.62A22.65,22.65,0,0,0,132.33,0H104V19h33V76H104.14Z" fill="#5e96bb" fill-rule="evenodd"/>
			<path d="M68.86,76H37V19H68.86V0H18V72.38A22.65,22.65,0,0,0,40.67,95H68.86Z" fill="#5e96bb" fill-rule="evenodd"/>
		</g>
		<path d="M115.33,0H36V72.38A22.65,22.65,0,0,0,58.67,95h56.66A22.65,22.65,0,0,0,138,72.38V22.62A22.65,22.65,0,0,0,115.33,0ZM119,19H55V76h64Z" fill="#0f5e9e" fill-rule="evenodd"/>
	</g>
	<style>
		#vwm-anim #move-elements > path:nth-child(1) {
			-webkit-transform: translate(-35px, 0px);
			    -ms-transform: translate(-35px, 0px);
			        transform: translate(-35px, 0px);
		}
		#vwm-anim #move-elements > path:nth-child(2) {
			-webkit-transform: translate(36px, 0px);
			    -ms-transform: translate(36px, 0px);
			        transform: translate(36px, 0px);
		}
		#vwm-anim #move-elements > path:nth-child(3) {
			-webkit-transform: translate(-18px, 0px);
			    -ms-transform: translate(-18px, 0px);
			        transform: translate(-18px, 0px);
		}
		#vwm-anim #move-elements > path:nth-child(4) {
			-webkit-transform: translate(18px, 0px);
			    -ms-transform: translate(18px, 0px);
			        transform: translate(18px, 0px);
		}

		#vwm-anim #move-elements > path {
			-webkit-animation: moveParts 0.5s ease-in-out 0.6s forwards;
			        animation: moveParts 0.5s ease-in-out 0.6s forwards;
		}

		#vwm-anim #logo {
			-webkit-transform-origin: 87px 47.5px;
			    -ms-transform-origin: 87px 47.5px;
			        transform-origin: 87px 47.5px;
			-webkit-transform: scale(0, 0);
			    -ms-transform: scale(0, 0);
			        transform: scale(0, 0);
			-webkit-animation: scaleLogo 1.8s cubic-bezier(0.37, 0, 0.63, 1) 0s forwards !important;
			        animation: scaleLogo 1.8s cubic-bezier(0.37, 0, 0.63, 1) 0s forwards !important;
		}

		@-webkit-keyframes scaleLogo {
			0% {
				-webkit-transform: scale(0, 0);
				        transform: scale(0, 0);
				-webkit-animation-timing-function: ease-out;
				        animation-timing-function: ease-out;
			}
			37%, 92%, 100% {
				-webkit-transform: scale(1, 1);
				        transform: scale(1, 1);
			}
			62%, 66% {
				-webkit-transform: scale(0.9, 0.9);
				        transform: scale(0.9, 0.9);
			}
		}

		@keyframes scaleLogo {
			0% {
				-webkit-transform: scale(0, 0);
				        transform: scale(0, 0);
				-webkit-animation-timing-function: ease-out;
				        animation-timing-function: ease-out;
			}
			37%, 92%, 100% {
				-webkit-transform: scale(1, 1);
				        transform: scale(1, 1);
			}
			62%, 66% {
				-webkit-transform: scale(0.9, 0.9);
				        transform: scale(0.9, 0.9);
			}
		}

		@-webkit-keyframes moveParts {
			to {
				-webkit-transform: translate(0px, 0px);
				        transform: translate(0px, 0px);
			}
		}

		@keyframes moveParts {
			to {
				-webkit-transform: translate(0px, 0px);
				        transform: translate(0px, 0px);
			}
		}
	</style>
</svg>
